<svg id="Layer_1" data-name="Layer 1" xmlns="http://www.w3.org/2000/svg" viewBox="0 0 88.26 105.44"><defs><style>.cls-1{fill:#6883ba;}.cls-2{fill:#3d3b8e;}</style></defs><path class="cls-1" d="M327.28,382.6a14.17,14.17,0,0,0-1.6-.09H277.05a9.42,9.42,0,0,0-9.42,9.42v65.86a14.84,14.84,0,0,0,.09,1.63,16,16,0,0,1-14.35-15.87V377.7a9.42,9.42,0,0,1,9.42-9.42h48.63A15.93,15.93,0,0,1,327.28,382.6Z" transform="translate(-253.37 -368.28)"/><path class="cls-2" d="M327.28,382.58a14.17,14.17,0,0,0-1.6-.08H276.6a9,9,0,0,0-9,9v66.31a14.57,14.57,0,0,0,.09,1.63,15.93,15.93,0,0,0,15.86,14.32h49.09a9,9,0,0,0,9-9v-66.3A16,16,0,0,0,327.28,382.58Z" transform="translate(-253.37 -368.28)"/><path class="cls-1" d="M291,428.14a2,2,0,0,0,.57,1.37,1.94,1.94,0,0,0,1.37.57L319,430a1.94,1.94,0,1,0,0-3.87l-26.07,0A1.94,1.94,0,0,0,291,428.14Z" transform="translate(-253.37 -368.28)"/><path class="cls-1" d="M330,418.67a13.22,13.22,0,0,0-9.42-3.88h-9a1.94,1.94,0,1,0,0,3.87h9a9.44,9.44,0,1,1,0,18.88h-9a2,2,0,0,0-1.94,1.94,1.95,1.95,0,0,0,1.94,1.94h9A13.32,13.32,0,0,0,330,418.67Z" transform="translate(-253.37 -368.28)"/><path class="cls-1" d="M300.26,437.57h-9a9.42,9.42,0,0,1-9.45-9.42,9.45,9.45,0,0,1,9.42-9.46h9a1.94,1.94,0,1,0,0-3.87h-9a13.32,13.32,0,0,0,0,26.63l9,0a1.94,1.94,0,1,0,0-3.87Z" transform="translate(-253.37 -368.28)"/></svg>