<svg id="Layer_1" data-name="Layer 1" xmlns="http://www.w3.org/2000/svg" viewBox="0 0 54.49 102.75"><defs><style>.cls-1{fill:#6883ba;}</style></defs><path class="cls-1" d="M327.38,375.71l-23.51-5.95a4.34,4.34,0,0,0-5.27,3.14l-.71,2.8,11.93,3a1.48,1.48,0,0,1,1.07,1.8l-.65,2.58a1.48,1.48,0,0,1-1.8,1.07l-11.93-3-3.27,12.92,11.93,3a1.47,1.47,0,0,1,1.07,1.8l-.65,2.58a1.47,1.47,0,0,1-1.79,1.07l-11.94-3-3.72,14.72,11.93,3a1.47,1.47,0,0,1,1.07,1.79l-.65,2.58a1.48,1.48,0,0,1-1.8,1.07l-11.93-3L283,434.4l11.93,3a1.48,1.48,0,0,1,1.07,1.8l-.65,2.58a1.48,1.48,0,0,1-1.8,1.07l-11.93-3-3.39,13.37,11.93,3a1.48,1.48,0,0,1,1.07,1.8l-.65,2.58a1.47,1.47,0,0,1-1.79,1.07l-11.93-3-.6,2.36a4.34,4.34,0,0,0,3.14,5.27L303,472.24a4.34,4.34,0,0,0,5.27-3.14L330.53,381A4.34,4.34,0,0,0,327.38,375.71Z" transform="translate(-276.17 -369.63)"/></svg>